<svg width="200" height="200" viewBox="0 0 200 200" xmlns="http://www.w3.org/2000/svg">
  <!-- Body -->
  <ellipse cx="100" cy="140" rx="60" ry="40" fill="#FFEB3B" />
  <!-- Tail -->
  <path d="M 40 130 L 20 120 L 40 150 Z" fill="#FFEB3B" />
  <!-- Head -->
  <circle cx="140" cy="90" r="35" fill="#FFEB3B" />
  <!-- Sunglasses -->
  <path d="M 125 80 Q 135 80 145 80 L 150 75 L 145 85 Q 160 85 170 75 L 165 90 Z" fill="black" />
  <rect x="125" y="75" width="20" height="10" rx="2" fill="black" />
  <rect x="155" y="75" width="20" height="10" rx="2" fill="black" />
  <line x1="145" y1="80" x2="155" y2="80" stroke="black" stroke-width="2" />
  <!-- Beak -->
  <path d="M 170 95 Q 190 90 190 100 Q 170 110 165 100 Z" fill="#FF5722" />
  <!-- Wing -->
  <ellipse cx="90" cy="145" rx="30" ry="15" fill="#FBC02D" transform="rotate(-15 90 145)" />
</svg>
